<svg width="1200" height="630" viewBox="0 0 317.5 166.688" xmlns="http://www.w3.org/2000/svg">
  <path paint-order="markers fill stroke" d="M0 0h317.5v166.688H0z" />
  <path
    d="M97.17 75.99v10.982c0 .998-.152 1.902-.457 2.711a5.52 5.52 0 01-1.35 2.068c-.586.57-1.308 1.007-2.166 1.312-.85.306-1.825.458-2.923.458-1.106 0-2.063-.14-2.872-.42-.8-.29-1.572-.686-2.315-1.19l1.547-2.5c.586.404 1.135.689 1.647.854.512.157 1.094.235 1.746.235.883 0 1.618-.28 2.204-.842.594-.57.891-1.448.891-2.637v-8.06h-5.274v-2.972zm14.611 13.371c0 .495.066.854.198 1.077.14.223.363.392.669.508l-.805 2.575c-.776-.074-1.432-.243-1.969-.507a2.981 2.981 0 01-1.25-1.226 4.578 4.578 0 01-1.932 1.35 6.898 6.898 0 01-2.402.433c-1.353 0-2.435-.384-3.244-1.152-.8-.776-1.2-1.77-1.2-2.984 0-1.428.557-2.53 1.67-3.305 1.123-.776 2.7-1.164 4.73-1.164h1.771v-.496c0-.685-.223-1.192-.669-1.522-.437-.33-1.08-.496-1.931-.496-.421 0-.962.062-1.622.186-.66.116-1.32.285-1.981.508l-.904-2.6c.85-.322 1.734-.566 2.65-.731.924-.165 1.75-.248 2.476-.248 1.956 0 3.4.4 4.334 1.201.94.793 1.411 1.94 1.411 3.442zm-6.141 1.412c.42 0 .862-.124 1.325-.372a2.547 2.547 0 001.052-1.077v-2.13h-.966c-1.09 0-1.89.17-2.402.508-.511.33-.767.817-.767 1.461 0 .504.152.9.458 1.189.313.28.747.42 1.3.42zm9.93 2.377V80h3.417l.272 1.524c.586-.66 1.206-1.152 1.858-1.474.652-.322 1.395-.483 2.228-.483 1.123 0 2.006.343 2.65 1.028.644.685.966 1.65.966 2.897v9.658h-3.913v-8.531c0-.536-.037-.962-.111-1.275-.075-.322-.207-.55-.396-.681-.182-.14-.434-.21-.756-.21-.272 0-.54.061-.805.185a2.96 2.96 0 00-.755.508 6.49 6.49 0 00-.743.804v9.2zm36.847-17.594c1.23 0 2.274.165 3.132.495a8.16 8.16 0 012.378 1.374l-1.994 2.402a5.704 5.704 0 00-1.56-.916 4.893 4.893 0 00-1.857-.346c-.718 0-1.374.206-1.969.619-.594.404-1.069 1.048-1.424 1.931-.354.875-.532 2.014-.532 3.417 0 1.379.17 2.506.508 3.38.346.867.821 1.507 1.424 1.92.602.404 1.291.606 2.067.606.859 0 1.573-.16 2.142-.483.57-.321 1.094-.672 1.573-1.052l1.845 2.352c-.644.636-1.437 1.18-2.378 1.635-.94.454-2.076.68-3.405.68-1.551 0-2.93-.342-4.135-1.027-1.197-.693-2.138-1.708-2.823-3.046-.677-1.345-1.015-3-1.015-4.965 0-1.915.35-3.54 1.052-4.878.71-1.337 1.672-2.352 2.885-3.046 1.213-.701 2.575-1.052 4.086-1.052zm11.118 12.158c.091.719.277 1.3.558 1.746.288.438.656.76 1.102.966a3.65 3.65 0 001.498.297c.602 0 1.184-.099 1.745-.297a7.966 7.966 0 001.622-.792l1.573 2.13c-.62.527-1.37.96-2.254 1.3-.874.338-1.873.507-2.996.507-1.502 0-2.76-.297-3.776-.892a5.768 5.768 0 01-2.29-2.476c-.513-1.048-.768-2.253-.768-3.615 0-1.296.247-2.472.742-3.529a6.017 6.017 0 012.167-2.538c.958-.636 2.126-.954 3.504-.954 1.255 0 2.34.269 3.257.805.924.537 1.638 1.309 2.141 2.316.512 1.007.768 2.216.768 3.627 0 .223-.008.463-.025.718a7.51 7.51 0 01-.05.681zm2.427-5.522c-.701 0-1.267.252-1.696.756-.43.503-.69 1.308-.78 2.414h4.829c-.009-.958-.194-1.725-.558-2.303-.363-.578-.961-.867-1.795-.867zm9.162 10.958v-2.625h1.734v-7.924h-1.734V80h4.718l.718 2.959c.47-1.13 1.069-1.973 1.795-2.526.735-.553 1.63-.83 2.687-.83.446 0 .842.038 1.189.112.346.066.672.16.978.285l-1.189 3.231a5.55 5.55 0 00-.718-.148 5.825 5.825 0 00-.792-.05c-.859 0-1.614.351-2.266 1.053-.644.701-1.135 1.593-1.474 2.674v3.764h2.6v2.625zm8.903-7.652V81.66l.582-1.66h2.6l-.73 5.498zm5.831 7.652V80h3.418l.272 1.524c.586-.66 1.205-1.152 1.857-1.474.652-.322 1.395-.483 2.229-.483 1.122 0 2.006.343 2.65 1.028.643.685.965 1.65.965 2.897v9.658h-3.912v-8.531c0-.536-.037-.962-.112-1.275-.074-.322-.206-.55-.396-.681-.181-.14-.433-.21-.755-.21-.273 0-.54.061-.805.185a2.96 2.96 0 00-.755.508 6.49 6.49 0 00-.743.804v9.2zM212.752 80v10.475h3.343v2.675h-10.983v-2.675h3.727v-7.8h-3.603v-2.674zm-2.365-6.883c.677 0 1.23.21 1.659.631.43.421.644.945.644 1.573 0 .627-.215 1.155-.644 1.584-.43.421-.982.632-1.66.632-.684 0-1.246-.21-1.683-.632-.43-.429-.644-.957-.644-1.584 0-.628.215-1.152.644-1.573.437-.42.999-.631 1.684-.631zM232.054 80l-4.32 5.819 4.68 7.33h-4.458l-4.321-7.206L227.956 80zm-8.568-5.634V93.15h-3.912V74.776z"
    style="-inkscape-font-specification:'Fira Code Bold';white-space:pre" aria-label="Jan Cernik" font-weight="700"
    font-size="85.333" font-family="Fira Code" fill="#fff" paint-order="markers fill stroke" />
</svg>